<?xml version="1.0" encoding="UTF-8" standalone="no"?>
<!-- Svg Vector Icons : http://www.onlinewebfonts.com/icon -->

<svg
   version="1.1"
   x="0px"
   y="0px"
   viewBox="0 0 1000 1000"
   enable-background="new 0 0 1000 1000"
   xml:space="preserve"
   id="svg78"
   xmlns="http://www.w3.org/2000/svg"
   xmlns:svg="http://www.w3.org/2000/svg"><defs
   id="defs82" />
<metadata
   id="metadata72"> Svg Vector Icons : http://www.onlinewebfonts.com/icon </metadata>
<g
   id="g76"
   style="fill:#ffffff"><path
     d="M630.8,497.3l317.1-330.7c35.4-36.9,34.1-95.5-2.8-130.8c-36.8-35.4-95.4-34.1-130.8,2.8L497.2,369.2L189.3,73.9c-36.8-35.4-95.4-34.1-130.8,2.7l-0.1,0.1c-35.3,36.9-34,95.4,2.8,130.7l308,295.3L52.1,833.4c-35.4,36.9-34.1,95.5,2.8,130.8c36.9,35.4,95.5,34.1,130.8-2.7l317.1-330.7l308,295.2c36.8,35.4,95.3,34.1,130.6-2.6l0.3-0.3c35.2-36.9,33.9-95.3-2.9-130.6L630.8,497.3z"
     id="path74"
     style="fill:#ffffff" /></g>
</svg>
